<mxfile host="Electron" agent="Mozilla/5.0 (Macintosh; Intel Mac OS X 10_15_7) AppleWebKit/537.36 (KHTML, like Gecko) draw.io/24.7.5 Chrome/126.0.6478.183 Electron/31.3.0 Safari/537.36" version="24.7.5">
  <diagram id="GazdFIx2d2a2DAWuciiK" name="ページ1">
    <mxGraphModel dx="1915" dy="1097" grid="1" gridSize="10" guides="1" tooltips="1" connect="1" arrows="1" fold="1" page="1" pageScale="1" pageWidth="1169" pageHeight="827" math="0" shadow="0">
      <root>
        <mxCell id="0" />
        <mxCell id="1" parent="0" />
        <mxCell id="XoD1nehTnlwW53rpnUDK-28" style="edgeStyle=orthogonalEdgeStyle;rounded=0;orthogonalLoop=1;jettySize=auto;html=1;" edge="1" parent="1" source="XoD1nehTnlwW53rpnUDK-26" target="XoD1nehTnlwW53rpnUDK-17">
          <mxGeometry relative="1" as="geometry">
            <Array as="points">
              <mxPoint x="729" y="380" />
            </Array>
          </mxGeometry>
        </mxCell>
        <mxCell id="XoD1nehTnlwW53rpnUDK-37" value="トリガー" style="edgeLabel;html=1;align=center;verticalAlign=middle;resizable=0;points=[];" vertex="1" connectable="0" parent="XoD1nehTnlwW53rpnUDK-28">
          <mxGeometry x="-0.1622" y="-2" relative="1" as="geometry">
            <mxPoint x="1" as="offset" />
          </mxGeometry>
        </mxCell>
        <mxCell id="XoD1nehTnlwW53rpnUDK-26" value="" style="rounded=1;whiteSpace=wrap;html=1;" vertex="1" parent="1">
          <mxGeometry x="375" y="260" width="175" height="240" as="geometry" />
        </mxCell>
        <mxCell id="XoD1nehTnlwW53rpnUDK-5" style="edgeStyle=orthogonalEdgeStyle;rounded=0;orthogonalLoop=1;jettySize=auto;html=1;" edge="1" parent="1" source="XoD1nehTnlwW53rpnUDK-3" target="XoD1nehTnlwW53rpnUDK-4">
          <mxGeometry relative="1" as="geometry" />
        </mxCell>
        <mxCell id="XoD1nehTnlwW53rpnUDK-6" value="サブドメイン" style="edgeLabel;html=1;align=center;verticalAlign=middle;resizable=0;points=[];" vertex="1" connectable="0" parent="XoD1nehTnlwW53rpnUDK-5">
          <mxGeometry x="0.082" y="-3" relative="1" as="geometry">
            <mxPoint x="14" as="offset" />
          </mxGeometry>
        </mxCell>
        <mxCell id="XoD1nehTnlwW53rpnUDK-3" value="spin-dd.com" style="sketch=0;points=[[0,0,0],[0.25,0,0],[0.5,0,0],[0.75,0,0],[1,0,0],[0,1,0],[0.25,1,0],[0.5,1,0],[0.75,1,0],[1,1,0],[0,0.25,0],[0,0.5,0],[0,0.75,0],[1,0.25,0],[1,0.5,0],[1,0.75,0]];outlineConnect=0;fontColor=#232F3E;fillColor=#8C4FFF;strokeColor=#ffffff;dashed=0;verticalLabelPosition=bottom;verticalAlign=top;align=center;html=1;fontSize=12;fontStyle=0;aspect=fixed;shape=mxgraph.aws4.resourceIcon;resIcon=mxgraph.aws4.route_53;" vertex="1" parent="1">
          <mxGeometry x="889" y="80" width="78" height="78" as="geometry" />
        </mxCell>
        <mxCell id="XoD1nehTnlwW53rpnUDK-4" value="demo.spin-dd.com" style="sketch=0;points=[[0,0,0],[0.25,0,0],[0.5,0,0],[0.75,0,0],[1,0,0],[0,1,0],[0.25,1,0],[0.5,1,0],[0.75,1,0],[1,1,0],[0,0.25,0],[0,0.5,0],[0,0.75,0],[1,0.25,0],[1,0.5,0],[1,0.75,0]];outlineConnect=0;fontColor=#232F3E;fillColor=#8C4FFF;strokeColor=#ffffff;dashed=0;verticalLabelPosition=bottom;verticalAlign=top;align=center;html=1;fontSize=12;fontStyle=0;aspect=fixed;shape=mxgraph.aws4.resourceIcon;resIcon=mxgraph.aws4.route_53;" vertex="1" parent="1">
          <mxGeometry x="652" y="80" width="78" height="78" as="geometry" />
        </mxCell>
        <mxCell id="XoD1nehTnlwW53rpnUDK-9" style="edgeStyle=orthogonalEdgeStyle;rounded=0;orthogonalLoop=1;jettySize=auto;html=1;" edge="1" parent="1" source="XoD1nehTnlwW53rpnUDK-7" target="XoD1nehTnlwW53rpnUDK-8">
          <mxGeometry relative="1" as="geometry" />
        </mxCell>
        <mxCell id="XoD1nehTnlwW53rpnUDK-10" style="edgeStyle=orthogonalEdgeStyle;rounded=0;orthogonalLoop=1;jettySize=auto;html=1;" edge="1" parent="1" source="XoD1nehTnlwW53rpnUDK-7" target="XoD1nehTnlwW53rpnUDK-4">
          <mxGeometry relative="1" as="geometry" />
        </mxCell>
        <mxCell id="XoD1nehTnlwW53rpnUDK-11" value="所有確認" style="edgeLabel;html=1;align=center;verticalAlign=middle;resizable=0;points=[];" vertex="1" connectable="0" parent="XoD1nehTnlwW53rpnUDK-10">
          <mxGeometry x="-0.2241" y="2" relative="1" as="geometry">
            <mxPoint as="offset" />
          </mxGeometry>
        </mxCell>
        <mxCell id="XoD1nehTnlwW53rpnUDK-7" value="Certificate Manager" style="sketch=0;points=[[0,0,0],[0.25,0,0],[0.5,0,0],[0.75,0,0],[1,0,0],[0,1,0],[0.25,1,0],[0.5,1,0],[0.75,1,0],[1,1,0],[0,0.25,0],[0,0.5,0],[0,0.75,0],[1,0.25,0],[1,0.5,0],[1,0.75,0]];outlineConnect=0;fontColor=#232F3E;fillColor=#DD344C;strokeColor=#ffffff;dashed=0;verticalLabelPosition=top;verticalAlign=bottom;align=center;html=1;fontSize=12;fontStyle=0;aspect=fixed;shape=mxgraph.aws4.resourceIcon;resIcon=mxgraph.aws4.certificate_manager_3;labelPosition=center;" vertex="1" parent="1">
          <mxGeometry x="170" y="80" width="78" height="78" as="geometry" />
        </mxCell>
        <mxCell id="XoD1nehTnlwW53rpnUDK-8" value="kb.demo.spin-dd.com" style="outlineConnect=0;dashed=0;verticalLabelPosition=bottom;verticalAlign=top;align=center;html=1;shape=mxgraph.aws3.certificate;fillColor=#5294CF;gradientColor=none;" vertex="1" parent="1">
          <mxGeometry x="177.5" y="292.5" width="63" height="85.5" as="geometry" />
        </mxCell>
        <mxCell id="XoD1nehTnlwW53rpnUDK-15" style="edgeStyle=orthogonalEdgeStyle;rounded=0;orthogonalLoop=1;jettySize=auto;html=1;" edge="1" parent="1" target="XoD1nehTnlwW53rpnUDK-4">
          <mxGeometry relative="1" as="geometry">
            <mxPoint x="460" y="260" as="sourcePoint" />
            <Array as="points">
              <mxPoint x="459" y="150" />
            </Array>
          </mxGeometry>
        </mxCell>
        <mxCell id="XoD1nehTnlwW53rpnUDK-16" value="cname 登録" style="edgeLabel;html=1;align=center;verticalAlign=middle;resizable=0;points=[];" vertex="1" connectable="0" parent="XoD1nehTnlwW53rpnUDK-15">
          <mxGeometry x="0.4927" y="-1" relative="1" as="geometry">
            <mxPoint as="offset" />
          </mxGeometry>
        </mxCell>
        <mxCell id="XoD1nehTnlwW53rpnUDK-12" value="api kb" style="sketch=0;points=[[0,0,0],[0.25,0,0],[0.5,0,0],[0.75,0,0],[1,0,0],[0,1,0],[0.25,1,0],[0.5,1,0],[0.75,1,0],[1,1,0],[0,0.25,0],[0,0.5,0],[0,0.75,0],[1,0.25,0],[1,0.5,0],[1,0.75,0]];outlineConnect=0;fontColor=#232F3E;fillColor=#E7157B;strokeColor=#ffffff;dashed=0;verticalLabelPosition=bottom;verticalAlign=top;align=center;html=1;fontSize=12;fontStyle=0;aspect=fixed;shape=mxgraph.aws4.resourceIcon;resIcon=mxgraph.aws4.api_gateway;" vertex="1" parent="1">
          <mxGeometry x="420" y="300" width="78" height="78" as="geometry" />
        </mxCell>
        <mxCell id="XoD1nehTnlwW53rpnUDK-21" style="edgeStyle=orthogonalEdgeStyle;rounded=0;orthogonalLoop=1;jettySize=auto;html=1;" edge="1" parent="1" source="XoD1nehTnlwW53rpnUDK-17" target="XoD1nehTnlwW53rpnUDK-20">
          <mxGeometry relative="1" as="geometry" />
        </mxCell>
        <mxCell id="XoD1nehTnlwW53rpnUDK-17" value="sample-ai-kb" style="outlineConnect=0;dashed=0;verticalLabelPosition=top;verticalAlign=bottom;align=center;html=1;shape=mxgraph.aws3.lambda_function;fillColor=#F58534;gradientColor=none;labelPosition=center;" vertex="1" parent="1">
          <mxGeometry x="661" y="344" width="69" height="72" as="geometry" />
        </mxCell>
        <mxCell id="XoD1nehTnlwW53rpnUDK-19" style="edgeStyle=orthogonalEdgeStyle;rounded=0;orthogonalLoop=1;jettySize=auto;html=1;" edge="1" parent="1" source="XoD1nehTnlwW53rpnUDK-18" target="XoD1nehTnlwW53rpnUDK-17">
          <mxGeometry relative="1" as="geometry" />
        </mxCell>
        <mxCell id="XoD1nehTnlwW53rpnUDK-36" value="イメージ" style="edgeLabel;html=1;align=center;verticalAlign=middle;resizable=0;points=[];" vertex="1" connectable="0" parent="XoD1nehTnlwW53rpnUDK-19">
          <mxGeometry x="0.1278" y="-2" relative="1" as="geometry">
            <mxPoint x="1" as="offset" />
          </mxGeometry>
        </mxCell>
        <mxCell id="XoD1nehTnlwW53rpnUDK-18" value="sample-ai-kb" style="outlineConnect=0;dashed=0;verticalLabelPosition=top;verticalAlign=bottom;align=center;html=1;shape=mxgraph.aws3.ecr_registry;fillColor=#F58534;gradientColor=none;labelPosition=center;" vertex="1" parent="1">
          <mxGeometry x="910" y="350" width="57" height="60" as="geometry" />
        </mxCell>
        <mxCell id="XoD1nehTnlwW53rpnUDK-20" value="Bedrock&amp;nbsp;" style="sketch=0;points=[[0,0,0],[0.25,0,0],[0.5,0,0],[0.75,0,0],[1,0,0],[0,1,0],[0.25,1,0],[0.5,1,0],[0.75,1,0],[1,1,0],[0,0.25,0],[0,0.5,0],[0,0.75,0],[1,0.25,0],[1,0.5,0],[1,0.75,0]];outlineConnect=0;fontColor=#232F3E;fillColor=#01A88D;strokeColor=#ffffff;dashed=0;verticalLabelPosition=bottom;verticalAlign=top;align=center;html=1;fontSize=12;fontStyle=0;aspect=fixed;shape=mxgraph.aws4.resourceIcon;resIcon=mxgraph.aws4.bedrock;" vertex="1" parent="1">
          <mxGeometry x="656.5" y="500" width="78" height="78" as="geometry" />
        </mxCell>
        <mxCell id="XoD1nehTnlwW53rpnUDK-22" value="/faq" style="shadow=0;dashed=0;html=1;strokeColor=none;fillColor=#EF8F21;labelPosition=center;verticalLabelPosition=top;verticalAlign=bottom;align=center;outlineConnect=0;shape=mxgraph.veeam.2d.restful_apis;" vertex="1" parent="1">
          <mxGeometry x="400" y="420" width="44.8" height="44.8" as="geometry" />
        </mxCell>
        <mxCell id="XoD1nehTnlwW53rpnUDK-23" value="/faq_stream" style="shadow=0;dashed=0;html=1;strokeColor=none;fillColor=#EF8F21;labelPosition=center;verticalLabelPosition=top;verticalAlign=bottom;align=center;outlineConnect=0;shape=mxgraph.veeam.2d.restful_apis;" vertex="1" parent="1">
          <mxGeometry x="480" y="420" width="44.8" height="44.8" as="geometry" />
        </mxCell>
        <mxCell id="XoD1nehTnlwW53rpnUDK-27" style="edgeStyle=orthogonalEdgeStyle;rounded=0;orthogonalLoop=1;jettySize=auto;html=1;entryX=0.006;entryY=0.321;entryDx=0;entryDy=0;entryPerimeter=0;" edge="1" parent="1" source="XoD1nehTnlwW53rpnUDK-8" target="XoD1nehTnlwW53rpnUDK-26">
          <mxGeometry relative="1" as="geometry" />
        </mxCell>
        <mxCell id="XoD1nehTnlwW53rpnUDK-32" value="マッピング" style="edgeLabel;html=1;align=center;verticalAlign=middle;resizable=0;points=[];" vertex="1" connectable="0" parent="XoD1nehTnlwW53rpnUDK-27">
          <mxGeometry x="-0.3661" y="-1" relative="1" as="geometry">
            <mxPoint as="offset" />
          </mxGeometry>
        </mxCell>
        <mxCell id="XoD1nehTnlwW53rpnUDK-30" style="edgeStyle=orthogonalEdgeStyle;rounded=0;orthogonalLoop=1;jettySize=auto;html=1;" edge="1" parent="1" source="XoD1nehTnlwW53rpnUDK-29" target="XoD1nehTnlwW53rpnUDK-22">
          <mxGeometry relative="1" as="geometry" />
        </mxCell>
        <mxCell id="XoD1nehTnlwW53rpnUDK-31" style="edgeStyle=orthogonalEdgeStyle;rounded=0;orthogonalLoop=1;jettySize=auto;html=1;" edge="1" parent="1" source="XoD1nehTnlwW53rpnUDK-29" target="XoD1nehTnlwW53rpnUDK-23">
          <mxGeometry relative="1" as="geometry" />
        </mxCell>
        <mxCell id="XoD1nehTnlwW53rpnUDK-29" value="ユーザー" style="dashed=0;outlineConnect=0;html=1;align=center;labelPosition=center;verticalLabelPosition=bottom;verticalAlign=top;shape=mxgraph.weblogos.chrome" vertex="1" parent="1">
          <mxGeometry x="425.1" y="650" width="74.8" height="75.4" as="geometry" />
        </mxCell>
        <mxCell id="XoD1nehTnlwW53rpnUDK-34" style="edgeStyle=orthogonalEdgeStyle;rounded=0;orthogonalLoop=1;jettySize=auto;html=1;" edge="1" parent="1" source="XoD1nehTnlwW53rpnUDK-33" target="XoD1nehTnlwW53rpnUDK-18">
          <mxGeometry relative="1" as="geometry" />
        </mxCell>
        <mxCell id="XoD1nehTnlwW53rpnUDK-35" value="プッシュ" style="edgeLabel;html=1;align=center;verticalAlign=middle;resizable=0;points=[];" vertex="1" connectable="0" parent="XoD1nehTnlwW53rpnUDK-34">
          <mxGeometry x="0.1" y="-2" relative="1" as="geometry">
            <mxPoint x="1" as="offset" />
          </mxGeometry>
        </mxCell>
        <mxCell id="XoD1nehTnlwW53rpnUDK-33" value="Docker" style="shape=image;imageAspect=0;aspect=fixed;verticalLabelPosition=bottom;verticalAlign=top;image=data:image/png,iVBORw0KGgoAAAANSUhEUgAAASgAAADWCAYAAABi6B/EAAAKsWlDQ1BJQ0MgUHJvZmlsZQAASImVlwdUE+kWgP+Z9JDQAqFICb0J0gkgJYQWQEE62AhJgFBCTEHAjiyu4FpQEUFF0FUQBRtF7IhiYVFQ7LpBFgF1XSzYUHkDHIK777z3zrvn/HO/c+f+t8yZf84dAMiabKEwHVYGIEMgEYUH+NBi4+JpuEGAAepAGagBXTZHLGSEhYUARKb03+XDXQCN69vW47H+/f5/FRUuT8wBAApDOJEr5mQgfBJZ7zlCkQQAVDViN1oqEY5zB8JqIqRAhGXjnDzJ78c5cYLR+AmfyHAmwjoA4ElstigZAJI5YqdlcZKROKRAhG0FXL4A4WyEPTMyMrkINyNsjvgIER6PT0/8IU7y32ImymOy2clynuxlQvC+fLEwnZ3zfz6O/y0Z6dKpHKbIIqWIAsMRjdQF3U/LDJazIHFu6BTzuRP+E5wiDYyaYo6YGT/FXLZvsHxv+tyQKU7i+7PkcSSsyCnmif0ipliUGS7PlSRiMqaYLZrOK02LkttTeCx5/NyUyJgpzuJHz51icVpE8LQPU24XScPl9fMEAT7Tef3lvWeIf+iXz5LvlaREBsp7Z0/XzxMwpmOKY+W1cXm+ftM+UXJ/ocRHnkuYHib356UHyO3irAj5XgnyQk7vDZM/w1R2UNgUgwggAVLABXyQCWjAF9FiIATpgA1yJLxsyXhDzExhjoifnCKhMZCTxqOxBBybmTR7W3tHAMbP7eRr8Y46cR4h6vVp29oaADxOjY2NnZ62Bd0C4FgCAMSGaZv5QgCUBwC4eoYjFWVN2tDjFwwgAiXke6AF9IARMAfWwB44A3fgDfxAEAgFkSAOLAIckAIygAgsBcvBGlAAisBmsB2UgQqwD1SDI+A4aAJnwEVwBdwAt0APeARkoB+8BMPgAxiFIAgHkSEKpAXpQyaQFWQP0SFPyA8KgcKhOCgBSoYEkBRaDq2FiqBiqAyqhGqgY9Ap6CJ0DeqCHkC90BD0FvoCo2ASrAbrwqbwLJgOM+BgOBJeCCfDS+BcOB/eCJfCVfBhuBG+CN+Ae2AZ/BIeQQGUAoqKMkBZo+goJioUFY9KQolQK1GFqBJUFaoO1YJqR91GyVCvUJ/RWDQFTUNbo93RgegoNAe9BL0SvQFdhq5GN6Lb0LfRvehh9HcMGaODscK4YViYWEwyZimmAFOCOYBpwFzG9GD6MR+wWCwVa4Z1wQZi47Cp2GXYDdjd2HrsBWwXtg87gsPhtHBWOA9cKI6Nk+AKcDtxh3Hncd24ftwnvAJeH2+P98fH4wX4PHwJ/hD+HL4bP4AfJSgTTAhuhFACl5BD2ETYT2gh3CT0E0aJKkQzogcxkphKXEMsJdYRLxMfE98pKCgYKrgqzFPgK6xWKFU4qnBVoVfhM0mVZElikhaQpKSNpIOkC6QHpHdkMtmU7E2OJ0vIG8k15Evkp+RPihRFG0WWIldxlWK5YqNit+JrJYKSiRJDaZFSrlKJ0gmlm0qvlAnKpspMZbbySuVy5VPK95RHVCgqdiqhKhkqG1QOqVxTGVTFqZqq+qlyVfNV96leUu2joChGFCaFQ1lL2U+5TOlXw6qZqbHUUtWK1I6odaoNq6uqO6pHq2erl6ufVZdRUVRTKouaTt1EPU69S/2ioavB0OBprNeo0+jW+Kg5Q9Nbk6dZqFmv2aP5RYum5aeVprVFq0nriTZa21J7nvZS7T3al7VfzVCb4T6DM6NwxvEZD3VgHUudcJ1lOvt0OnRGdPV0A3SFujt1L+m+0qPqeeul6m3TO6c3pE/R99Tn62/TP6//gqZOY9DSaaW0NtqwgY5BoIHUoNKg02DU0MwwyjDPsN7wiRHRiG6UZLTNqNVo2FjfeI7xcuNa44cmBBO6SYrJDpN2k4+mZqYxputMm0wHzTTNWGa5ZrVmj83J5l7mS8yrzO9YYC3oFmkWuy1uWcKWTpYpluWWN61gK2crvtVuq66ZmJmuMwUzq2besyZZM6yzrGute22oNiE2eTZNNq9nGc+Kn7VlVvus77ZOtum2+20f2anaBdnl2bXYvbW3tOfYl9vfcSA7+Duscmh2eONo5chz3ON434niNMdpnVOr0zdnF2eRc53zkIuxS4LLLpd7dDV6GH0D/aorxtXHdZXrGdfPbs5uErfjbn+5W7unuR9yH5xtNps3e//sPg9DD7ZHpYfMk+aZ4LnXU+Zl4MX2qvJ65m3kzfU+4D3AsGCkMg4zXvvY+oh8Gnw+Mt2YK5gXfFG+Ab6Fvp1+qn5RfmV+T/0N/ZP9a/2HA5wClgVcCMQEBgduCbzH0mVxWDWs4SCXoBVBbcGk4IjgsuBnIZYhopCWOfCcoDlb5zyeazJXMLcpFISyQreGPgkzC1sSdnoedl7YvPJ5z8PtwpeHt0dQIhZHHIr4EOkTuSnyUZR5lDSqNVopekF0TfTHGN+Y4hhZ7KzYFbE34rTj+HHN8bj46PgD8SPz/eZvn9+/wGlBwYK7C80WZi+8tkh7Ufqis4uVFrMXn0jAJMQkHEr4yg5lV7FHElmJuxKHOUzODs5Lrjd3G3eI58Er5g0keSQVJw0meyRvTR5K8UopSXnFZ/LL+G9SA1MrUj+mhaYdTBtLj0mvz8BnJGScEqgK0gRtmXqZ2ZldQithgVC2xG3J9iXDomDRATEkXihulqghA1KH1Fz6k7Q3yzOrPOvT0uilJ7JVsgXZHTmWOetzBnL9c39dhl7GWda63GD5muW9KxgrKldCKxNXtq4yWpW/qn91wOrqNcQ1aWt+y7PNK857vzZmbUu+bv7q/L6fAn6qLVAsEBXcW+e+ruJn9M/8nzvXO6zfuf57IbfwepFtUUnR1w2cDdd/sful9JexjUkbOzc5b9qzGbtZsPnuFq8t1cUqxbnFfVvnbG3cRttWuO399sXbr5U4llTsIO6Q7pCVhpQ27zTeuXnn17KUsp5yn/L6XTq71u/6uJu7u3uP9566Ct2Kooove/l771cGVDZWmVaV7MPuy9r3fH/0/vZf6b/WHNA+UHTg20HBQVl1eHVbjUtNzSGdQ5tq4Vpp7dDhBYdvHfE90lxnXVdZT60vOgqOSo++OJZw7O7x4OOtJ+gn6k6anNzVQGkobIQacxqHm1KaZM1xzV2ngk61tri3NJy2OX3wjMGZ8rPqZzedI57LPzd2Pvf8yAXhhVcXky/2tS5ufXQp9tKdtnltnZeDL1+94n/lUjuj/fxVj6tnrrldO3Wdfr3phvONxg6njobfnH5r6HTubLzpcrP5luutlq7ZXee6vbov3va9feUO686Nnrk9XXej7t6/t+Ce7D73/uCD9AdvHmY9HH20+jHmceET5SclT3WeVv1u8Xu9zFl2tte3t+NZxLNHfZy+l3+I//jan/+c/LxkQH+gZtB+8MyQ/9CtF/Nf9L8Uvhx9VfCnyp+7Xpu/PvmX918dw7HD/W9Eb8bebnin9e7ge8f3rSNhI08/ZHwY/Vj4SetT9Wf65/YvMV8GRpd+xX0t/WbxreV78PfHYxljY0K2iD0xCqCQBSclAfD2IADkOAAoyAxBnD85V08INPkvMEHgP/Hk7D0hzgDUIWp8PGJeAOAoskxXA6DkDcD4aBTpDWAHB/mamoEn5vVxwSJ/LnVuxOGsvU9n1oB/yuQs/0Pd/9RAHvVv+l+k5g1EQyED1QAAAJZlWElmTU0AKgAAAAgABQESAAMAAAABAAEAAAEaAAUAAAABAAAASgEbAAUAAAABAAAAUgEoAAMAAAABAAIAAIdpAAQAAAABAAAAWgAAAAAAAACQAAAAAQAAAJAAAAABAAOShgAHAAAAEgAAAISgAgAEAAAAAQAAASigAwAEAAAAAQAAANYAAAAAQVNDSUkAAABTY3JlZW5zaG90SX4ikgAAAAlwSFlzAAAWJQAAFiUBSVIk8AAAAtdpVFh0WE1MOmNvbS5hZG9iZS54bXAAAAAAADx4OnhtcG1ldGEgeG1sbnM6eD0iYWRvYmU6bnM6bWV0YS8iIHg6eG1wdGs9IlhNUCBDb3JlIDYuMC4wIj4KICAgPHJkZjpSREYgeG1sbnM6cmRmPSJodHRwOi8vd3d3LnczLm9yZy8xOTk5LzAyLzIyLXJkZi1zeW50YXgtbnMjIj4KICAgICAgPHJkZjpEZXNjcmlwdGlvbiByZGY6YWJvdXQ9IiIKICAgICAgICAgICAgeG1sbnM6ZXhpZj0iaHR0cDovL25zLmFkb2JlLmNvbS9leGlmLzEuMC8iCiAgICAgICAgICAgIHhtbG5zOnRpZmY9Imh0dHA6Ly9ucy5hZG9iZS5jb20vdGlmZi8xLjAvIj4KICAgICAgICAgPGV4aWY6UGl4ZWxYRGltZW5zaW9uPjI5NjwvZXhpZjpQaXhlbFhEaW1lbnNpb24+CiAgICAgICAgIDxleGlmOlVzZXJDb21tZW50PlNjcmVlbnNob3Q8L2V4aWY6VXNlckNvbW1lbnQ+CiAgICAgICAgIDxleGlmOlBpeGVsWURpbWVuc2lvbj4yMTQ8L2V4aWY6UGl4ZWxZRGltZW5zaW9uPgogICAgICAgICA8dGlmZjpSZXNvbHV0aW9uVW5pdD4yPC90aWZmOlJlc29sdXRpb25Vbml0PgogICAgICAgICA8dGlmZjpZUmVzb2x1dGlvbj4xNDQ8L3RpZmY6WVJlc29sdXRpb24+CiAgICAgICAgIDx0aWZmOlhSZXNvbHV0aW9uPjE0NDwvdGlmZjpYUmVzb2x1dGlvbj4KICAgICAgICAgPHRpZmY6T3JpZW50YXRpb24+MTwvdGlmZjpPcmllbnRhdGlvbj4KICAgICAgPC9yZGY6RGVzY3JpcHRpb24+CiAgIDwvcmRmOlJERj4KPC94OnhtcG1ldGE+Cs9CSm4AAA37SURBVHgB7d1Pths1Fsfxlz6cZpQRPeoNwBh6HWQRHMgK6EXACtKcXgSsI+kx2QAjGGUEk/S7L1So51TZll0lX0kfTVx/VNK93yv/LKlU5Sdv79OdhAACCCQk8LeENjEJAQQQeCBAoDQEBBBIS4BApQ0NwxBAgEBpAwggkJYAgUobGoYhgACB0gYQQCAtAQKVNjQMQwABAqUNIIBAWgIEKm1oGIYAAgRKG0AAgbQECFTa0DAMAQQIlDaAAAJpCRCotKFhGAIIEChtAAEE0hIgUGlDwzAEECBQ2gACCKQlQKDShoZhCCBAoLQBBBBIS4BApQ0NwxBAgEBpAwggkJYAgUobGoYhgACB0gYQQCAtAQKVNjQMQwCBjyBAoITAN9/9evfy9R8ll1yc9/mXT++eP3t68fUubJ+AHlT7MeQBAt0SIFDdhpZjCLRPgEC1H0MeINAtAQLVbWg5hkD7BAhU+zHkAQLdEiBQ3YaWYwi0T4BAtR9DHiDQLQEC1W1oOYZA+wQIVPsx5AEC3RIgUN2GlmMItE+AQLUfQx4g0C0BAtVtaDmGQPsECFT7MeQBAt0SIFDdhpZjCLRPgEC1H0MeINAtAQLVbWg5hkD7BAhU+zHkAQLdEiBQ3YaWYwi0T4BAtR9DHiDQLQEC1W1oOYZA+wQIVPsx5AEC3RJ48vY+desdxzYn8Orn3zcvc63ALz77eO2U44MQIFCDBJqbCLRIwBCvxaixGYFBCBCoQQLNTQRaJECgWowamxEYhACBGiTQ3ESgRQIftWh0DZs//+qXGtU81PHDt5/cHbtj9c13v969fP1HFXsy2fL8y6d3z589reK3SnIS0IPKGRdWIYDAPQECpRkggEBaAgQqbWgYhgACBEobQACBtAQIVNrQMAwBBAiUNoAAAmkJEKi0oWEYAggQKG0AAQTSEiBQaUPDMAQQIFDaAAIIpCXgUZe0oWHYKATiUaZI8WjPsUeeRuEx95NAzWnYRqAygRc/vnn/nOXL73+7+9enfydUsxgY4s1g2ESgJoF4ffKLn948qjIeCv/6XqhCuCTP4mkDCNyEQIhTCNFaCuGKoV/Nd8Cv2XLL43pQt6Sv7mEJHPaclkDoTelBLbULxxDYlUD0ikre7xViNuqQTw9q16aocAQ+JHBsaPdh7ndHpiHf2vlejxOoXiPLr5QEpiUFlxgXva7R5qUI1CUtxTUIXECgdGi3VMU0LzXK5DmBWmoFjiGwA4FzJsbPrTaGiSOIFIE6t0XIh8AVBLboPR1WP4JIWUl+GPU/9+Oxgyzp4RGISv/qcsrnmrbEqupeUslduxKfQ6T+999/llzSVN4nb+9TUxYzFoEGCcTk9l4iFUL+n3//o0Eqp002xDvNSA4EriKwx/BublAIX6/rpAjUPNK2EdiBwJaT42vm9bqYk0CtRdxxBBojUEMIayMhULWJq284AnvNPS2B7G2ol+YuXozTa/4CnJpUvGbF71LDOXbs1IvKotG9ev37sSI2O5fJli8+/fju+bP1u6k128wpW9YCEDbWTPEdOsaspi1b1JVGoMKZmr80p+DVtOX5CWNCnGrZk8mWEIVjKZjU4vLOjnWxPGZn7XPxg9aLSBni1W496huKQM1RwQT2FnVOdW/9SaC2Jqo8BBIQ6GUuikAlaExMQACBZQIEapmLowg0TaCXYR6BaroZMh6BdQK17yCuW3L5GQJ1OTtXIpCaQN07nPugSLXMYB8XlYoAAksE1npYIWxrb5Ko/ceiBGopco4h0AmBEKGpJ1Wynu7FCf8nAYu1au+3Pzu+bu1EkYunCdQiFgcR2IZAfIEngdimxPNLiYnyU0JzfmmPc04+xee8jhCreBoh0ha9LQL1mLs9BBC4gkAIVvyFe6RJrK4RKpPkVwTDpQicIjANf07l6/F8iFW88fPzr365+H1VBKrHlsGnNASu6T2kcWIDQ2K4eclfZhGoDeArAoFjBKY5mWN5Rjg39ahK3hRCoEZoGXxEIBGBEsEmUIkCx5Q+CfTy6pMtohNzciXDXgK1BXVlIHCCQEmv4URRTZ8u5UCgmg4341shoBd197A+qqT3FLElUK20cHY2T6C099C8wzMHHtZEHXl98yzro00C9QiHHQT2IzByL+rUfwCsUSdQa2QcR2AHAiP2on749pOLSaZ51CXGppmCl82WL+5X5WZIwaWWLadWYT+c//O5rwxszrFh6kX18kK5Uz4/tJcrHiJ+8vY+narEeQQQ2JZALFaMhYs9pxCnSZAv9dMQ71JyrkPgCgKZeuhXuLF66RbiFIWnGeKteuoEAh0RmP5tpech3lbiFGEnUB01fq7kJDC9NK5nUZrIbylOUSaBmsj6RGBDAiP0lOa44obFpUsJ5uUcbhOoQyL2ESgkMPWQ4rKS1+oWVpM2+9a9prmjBGpOwzYCBwSmPxY4vOM2ohAdoHlYFnTtXbrDMg/30whUyTtiDp2wj8C1BA4F6Nryer5+zx7TIbc0AqWBHIbGPgJ5CMQcU/wBxN49pkOP0wjUoWH2EUDgtgSipxSptijNvSZQcxq2ERiUwNRDCvcftq94PGVLhARqS5rKQuBGBEJUTqUYos3TdE3pO5rmZey9TaD2Jqx8BHYmEEKzxxqknc0+q/g0z+JNan6W1TIhgMB7AtNc0fsDHW2kEaiOmHIFgWoE4oc98xDtWhAE6lqCrkfghgR67j0F1jQCdTiBd8OYqxqBJgj03nuKIKQRqCZaBCMRSESg995ToCZQiRocUxA4l8AIvadgkUag3MU7t2nKh8C7/5gbgUMager5TsQIDYmP9QiM0nsKomkEql541YRA2wR6XZS5FJVUAmWYtxQixxD4i8AIE+N/eZusB2WpwTw0thF4TCB+wG/5ZoHH1tTZS9WDquOyWhBok8BovaeIUiqBMsRr84vD6v0JhDiNeCMplUCNGID9m7YaeiAw2tBuilkqgQqjRuzGTsHwicASgR++/WTp8BDH0gnUENQ5icCZBEZa87SEJJ1AmYdaCpNjoxIYfUSRTqDMQ436VeT3IYFRJ8bnHNIJVBg3+q/GPEC2xyQw4pqnpUinFKglQx1DYCQCfqTfRfvJ2/uUMfCff/VLRrPYhMDuBOKunamOd5jT9qD8guz+PVBBQgLmnR4HJa1APTbTHgL9EzDv9GGM0wrUqCtnPwyRI6MQMGr4MNJpBSpMFbAPA+ZInwQM7Zbjmlugnj1dttpRBDoiYGi3HszUAhVm60WtB8+Z9gmEOI30hszSiKUXqAighECvBPwAH49seoGK9SCCeDyIzrZJwHqn03FLL1CnXZADgfYImBQ/L2ZNCFQsOdCLOi+gcuUnEG3ZMprz4tSEQJ3nilwI5Cfgjl1ZjJoRKL2ossDKnY+AO3blMUn7sPCaKx4iXiPjeGYCxOmy6DTTg5rcMxc1kfDZEgHt9rJotSdQ9xPm1kZdFmxX3YaA5QSXc29OoMJV/0B8ecBdWZcAcbqOd5MCZcL8uqC7ug4B4nQ95+YmyecumzCf07CdiQBx2iYaTfagJtdNPE4kfGYiQJy2i0bbAmWF+XYtQUmbECBOm2B8X8hH77ca3ZgeGXjx05tGPWB2DwSsc9onik33oCYkJs0nEj5vQYA47Ue9C4EKPCFS1kft11CUvEwg5kG9cG6ZzRZHuxGogGHSfIsmoYxzCUR7m6YYzr1GvjICXQmUl9uVBV/uywkQp8vZlVzZ/CT5obPTL5pJ80My9rci4E7dViRPl9P0Qs1j7r36+fe7r7//7VgW5xAoIqDXVIRrk8xdDfHmRGK4F790EgJbECBOW1AsL6NbgQoURKq8QbjiQwLE6UMmtY50O8SbA4zhXsxJvXz9x/ywbQSOEiBMR/FUOTmEQE0kv/nuVyI1wfB5lABxOoqn2smhBCqovvjxzUNvqhphFTVFgDDlClfXc1BLqD0Ws0TFsSBAnPK1g+F6UFMIzEtNJHwSprxtYFiBmkJiyDeRGO8zhCnStLh3PAL5PR5eoCJEelP5G+rWFuo1bU10n/II1Iyr3tQMRqebhKmtwBKog3jpTR0A6WSXMLUZSAK1EjdCtQKmscOEqbGAHZhLoA6AHO4SqkMibewTpjbidMpKAnWK0J/nCdWZoG6YLd6oGn/q6q7cDYOwcdUEqhAooSoEViF79JYiEaYKsCtXQaAuBE6oLgS30WV6SxuBTF4MgdogQMRqA4hnFmFu6UxQnWQjUBsGchKqKNKrXbYDawi3HcvWSiJQO0WMWF0Odhq+PXzevxlVGpcAgaoQ+xCrSF6atw5bL2mdzchnCNQNoh+CFUPAV6/ffd7AhJtWOfWQwgh33m4aivSVE6gEIZp6WJNohUm9zGHNxciQLUFja8wEApU4YEvCFeZmFC9ClLghNWwagWo4eJOAhQuTaMWwcS1NedbOx/EQmsMUq7PnacoT/5ojIbAnAQK1J11lI4DAVQSGeyf5VbRcjAACVQkQqKq4VYYAAiUECFQJLXkRQKAqAQJVFbfKEECghACBKqElLwIIVCVAoKriVhkCCJQQIFAltORFAIGqBAhUVdwqQwCBEgIEqoSWvAggUJUAgaqKW2UIIFBCgECV0JIXAQSqEiBQVXGrDAEESggQqBJa8iKAQFUCBKoqbpUhgEAJAQJVQkteBBCoSoBAVcWtMgQQKCFAoEpoyYsAAlUJEKiquFWGAAIlBAhUCS15EUCgKgECVRW3yhBAoIQAgSqhJS8CCFQlQKCq4lYZAgiUECBQJbTkRQCBqgQIVFXcKkMAgRICBKqElrwIIFCVwP8Bkwkosq4/WFIAAAAASUVORK5CYII=;" vertex="1" parent="1">
          <mxGeometry x="901.16" y="670" width="74.69" height="54" as="geometry" />
        </mxCell>
      </root>
    </mxGraphModel>
  </diagram>
</mxfile>
